<svg width="64" height="64" viewBox="0 0 64 64" fill="none" xmlns="http://www.w3.org/2000/svg">
<path d="M55.8586 22.1467C55.8317 20.127 55.4536 18.1274 54.7413 16.2373C54.1235 14.6431 53.18 13.1952 51.9711 11.9862C50.7621 10.7772 49.3142 9.83374 47.7199 9.21601C45.8542 8.51563 43.8831 8.13692 41.8906 8.09601C39.3253 7.98134 38.5119 7.94934 31.9999 7.94934C25.4879 7.94934 24.6533 7.94934 22.1066 8.09601C20.115 8.13722 18.1449 8.51592 16.2799 9.21601C14.6854 9.83331 13.2373 10.7767 12.0283 11.9857C10.8193 13.1947 9.87591 14.6428 9.25861 16.2373C8.55683 18.1017 8.17894 20.0723 8.14128 22.064C8.02661 24.632 7.99194 25.4453 7.99194 31.9573C7.99194 38.4693 7.99194 39.3013 8.14128 41.8507C8.18128 43.8453 8.55728 45.8133 9.25861 47.6827C9.87695 49.2767 10.821 50.7242 12.0304 51.9327C13.2399 53.1413 14.6881 54.0842 16.2826 54.7013C18.1424 55.4299 20.1129 55.8357 22.1093 55.9013C24.6773 56.016 25.4906 56.0507 32.0026 56.0507C38.5146 56.0507 39.3493 56.0507 41.8959 55.9013C43.8884 55.8621 45.8596 55.4843 47.7253 54.784C49.3191 54.1656 50.7666 53.2218 51.9755 52.0129C53.1844 50.804 54.1282 49.3565 54.7466 47.7627C55.4479 45.896 55.8239 43.928 55.8639 41.9307C55.9786 39.3653 56.0133 38.552 56.0133 32.0373C56.0079 25.5253 56.0079 24.6987 55.8586 22.1467ZM31.9839 44.272C25.1733 44.272 19.6559 38.7547 19.6559 31.944C19.6559 25.1333 25.1733 19.616 31.9839 19.616C35.2535 19.616 38.3892 20.9148 40.7012 23.2268C43.0131 25.5387 44.3119 28.6744 44.3119 31.944C44.3119 35.2136 43.0131 38.3493 40.7012 40.6612C38.3892 42.9732 35.2535 44.272 31.9839 44.272ZM44.8026 22.0347C44.425 22.035 44.051 21.9609 43.7021 21.8166C43.3532 21.6722 43.0361 21.4605 42.7691 21.1935C42.5021 20.9265 42.2904 20.6094 42.146 20.2605C42.0017 19.9116 41.9276 19.5376 41.9279 19.16C41.9279 18.7827 42.0023 18.409 42.1467 18.0604C42.2911 17.7118 42.5027 17.3951 42.7695 17.1283C43.0363 16.8614 43.3531 16.6498 43.7017 16.5054C44.0503 16.361 44.424 16.2867 44.8013 16.2867C45.1786 16.2867 45.5522 16.361 45.9009 16.5054C46.2495 16.6498 46.5662 16.8614 46.833 17.1283C47.0998 17.3951 47.3115 17.7118 47.4559 18.0604C47.6003 18.409 47.6746 18.7827 47.6746 19.16C47.6746 20.7493 46.3893 22.0347 44.8026 22.0347Z" fill="black"/>
<path d="M31.9841 39.952C36.4068 39.952 39.9921 36.3667 39.9921 31.944C39.9921 27.5213 36.4068 23.936 31.9841 23.936C27.5614 23.936 23.9761 27.5213 23.9761 31.944C23.9761 36.3667 27.5614 39.952 31.9841 39.952Z" fill="black"/>
</svg>
