<svg width="64" height="64" viewBox="0 0 64 64" fill="none" xmlns="http://www.w3.org/2000/svg">
<path d="M52.3546 21.3253C52.3893 21.792 52.3893 22.256 52.3893 22.72C52.3893 36.92 41.5813 53.2827 21.8293 53.2827C15.7439 53.2827 10.0906 51.52 5.33325 48.4587C6.19725 48.5574 7.02925 48.592 7.92792 48.592C12.7626 48.6037 17.4603 46.9871 21.2639 44.0027C19.0224 43.9621 16.8495 43.2226 15.0486 41.8873C13.2477 40.5521 11.9087 38.6877 11.2186 36.5547C11.8826 36.6533 12.5493 36.72 13.2479 36.72C14.2106 36.72 15.1786 36.5867 16.0773 36.3547C13.6446 35.8635 11.4572 34.5449 9.8869 32.6232C8.31662 30.7014 7.46043 28.2951 7.46392 25.8133V25.68C8.89592 26.4773 10.5573 26.976 12.3173 27.0427C10.8428 26.0629 9.63384 24.7334 8.79816 23.1728C7.96248 21.6122 7.52609 19.869 7.52792 18.0987C7.52792 16.104 8.05859 14.2747 8.98925 12.68C11.6883 16.0001 15.0546 18.7162 18.8701 20.6524C22.6857 22.5887 26.8654 23.7019 31.1386 23.92C30.9733 23.12 30.8719 22.2907 30.8719 21.4587C30.8712 20.0479 31.1486 18.6508 31.6881 17.3473C32.2277 16.0438 33.0189 14.8594 34.0164 13.8618C35.014 12.8643 36.1984 12.0731 37.5019 11.5336C38.8054 10.994 40.2025 10.7166 41.6133 10.7173C44.7066 10.7173 47.4986 12.0133 49.4613 14.1093C51.866 13.6443 54.172 12.7665 56.2773 11.5147C55.4757 13.9969 53.7966 16.1016 51.5546 17.4347C53.6874 17.1914 55.7717 16.6306 57.7386 15.7707C56.2696 17.9123 54.4493 19.7903 52.3546 21.3253Z" fill="black"/>
</svg>
