<svg width="64" height="64" viewBox="0 0 64 64" fill="none" xmlns="http://www.w3.org/2000/svg">
<path d="M57.5812 19.208C57.2775 18.0811 56.6839 17.0533 55.8596 16.2271C55.0352 15.4009 54.0088 14.805 52.8826 14.4987C48.7066 13.352 31.9999 13.3333 31.9999 13.3333C31.9999 13.3333 15.2959 13.3147 11.1172 14.4107C9.9917 14.7311 8.96743 15.3354 8.14274 16.1657C7.31806 16.996 6.72066 18.0243 6.4079 19.152C5.30657 23.328 5.2959 31.9893 5.2959 31.9893C5.2959 31.9893 5.28524 40.6933 6.37857 44.8267C6.9919 47.112 8.7919 48.9173 11.0799 49.5333C15.2986 50.68 31.9599 50.6987 31.9599 50.6987C31.9599 50.6987 48.6666 50.7173 52.8426 49.624C53.9692 49.3182 54.9966 48.7237 55.823 47.8992C56.6494 47.0746 57.2463 46.0486 57.5546 44.9227C58.6586 40.7493 58.6666 32.0907 58.6666 32.0907C58.6666 32.0907 58.7199 23.384 57.5812 19.208ZM26.6559 40.0133L26.6692 24.0133L40.5546 32.0267L26.6559 40.0133Z" fill="black"/>
</svg>
